<?xml version="1.0" encoding="iso-8859-1"?>
<!-- Generator: Adobe Illustrator 19.1.0, SVG Export Plug-In . SVG Version: 6.00 Build 0)  -->
<svg version="1.1" id="Capa_1" xmlns="http://www.w3.org/2000/svg" xmlns:xlink="http://www.w3.org/1999/xlink" x="0px" y="0px"
	 viewBox="0 0 63.154 63.154" style="enable-background:new 0 0 63.154 63.154;" xml:space="preserve">
<g>
	<g id="group-59svg">
		<path id="path-1_53_" d="M12.276,61.479c-5.698,0-9.381-1.369-11.173-4.131c-2.606-4.014,0.109-9.314,0.988-10.824
			c-0.081-9.813,2.926-17.496,8.941-22.841c12.006-10.667,31.742-8.153,32.566-8.041c0.743,0.102,1.512,0.736,1.512,1.487v1.753
			c0,0.828-0.672,1.5-1.5,1.5s-1.5-0.672-1.5-1.5v-0.393c-5-0.351-19.596-0.816-28.883,7.446C7.815,30.75,5.045,37.808,5.203,46.909
			c0.005,0.3-0.133,0.594-0.297,0.846c-0.889,1.373-2.873,5.485-1.257,7.967c1.792,2.748,7.774,3.458,16.871,2.001
			C36.227,55.204,40.684,46.89,41.663,40.36c0.122-0.82,0.879-1.384,1.702-1.262c0.819,0.123,1.383,0.887,1.26,1.706
			c-1.127,7.521-6.145,17.076-23.643,19.88C17.683,61.214,14.784,61.479,12.276,61.479z"/>
		<path id="path-2_53_" d="M33.96,47.522C33.96,47.522,33.96,47.522,33.96,47.522c-2.907-0.001-5.592-1.508-7.983-4.483
			c-2.834-3.525-3.672-7.044-2.489-10.459c3.176-9.168,20.567-14.298,25.411-15.564c-0.105-3.421,0.399-5.618,1.562-6.862
			c0.666-0.71,1.532-1.086,2.507-1.086c2.248,0,4.553,2.053,5.547,3.06c2.247,0.273,3.366,1.359,3.916,2.261
			c1.636,2.686,0.011,6.44-0.179,6.859c-0.212,0.467-0.647,0.792-1.154,0.865l-5.596,0.799
			C53.462,27.715,44.412,47.522,33.96,47.522z M52.968,12.068c-0.144,0-0.218,0.032-0.316,0.136
			c-0.238,0.255-0.993,1.432-0.697,5.871c0.049,0.733-0.443,1.395-1.159,1.561c-5.942,1.373-21.92,6.553-24.473,13.928
			c-0.833,2.408-0.182,4.891,1.992,7.595c1.794,2.231,3.692,3.362,5.645,3.363c7.803,0.001,16.43-16.991,19.095-23.539
			c0.201-0.494,0.65-0.844,1.178-0.92l5.562-0.795c0.306-0.972,0.598-2.463,0.072-3.321c-0.322-0.527-1.037-0.822-2.123-0.876
			c-0.398-0.02-0.772-0.198-1.038-0.493C55.79,13.566,53.969,12.068,52.968,12.068z"/>
		<path id="path-3_53_" d="M9.706,27.289c-0.022,0-0.043,0-0.065-0.001c-0.828-0.035-1.47-0.734-1.435-1.562
			C8.632,15.701,26.625,10.337,31.922,8.973c-0.082-2.818,0.259-6.067,2.58-7.046c2.452-1.038,5.268,1.399,6.414,2.554
			c2.077,0.265,3.118,1.28,3.632,2.124c1.532,2.514,0.021,6.007-0.157,6.397c-0.212,0.466-0.646,0.792-1.153,0.864l-5.057,0.723
			c-0.25,0.575-0.633,1.434-1.133,2.49c-0.355,0.748-1.252,1.066-1.998,0.712c-0.749-0.355-1.067-1.25-0.713-1.998
			c0.888-1.872,1.399-3.122,1.404-3.135c0.201-0.494,0.649-0.844,1.178-0.919l5.01-0.716c0.276-0.908,0.48-2.167,0.055-2.86
			c-0.272-0.444-0.892-0.693-1.841-0.741c-0.398-0.02-0.772-0.198-1.04-0.494c-1.196-1.322-2.942-2.448-3.434-2.238
			c-0.011,0.005-1.01,0.566-0.691,5.345c0.049,0.734-0.442,1.396-1.159,1.562c-6.183,1.429-22.298,6.777-22.615,14.256
			C11.17,26.659,10.504,27.289,9.706,27.289z"/>
		<path id="path-4_47_" d="M15.287,54.802c-3.956,0-7.38-0.748-7.649-0.809c-0.807-0.181-1.316-0.982-1.135-1.791
			c0.18-0.809,0.989-1.314,1.791-1.137c3.087,0.69,11.831,1.767,15.162-1.474c0.593-0.579,1.544-0.565,2.121,0.027
			c0.577,0.594,0.564,1.544-0.03,2.121C23.061,54.161,18.946,54.802,15.287,54.802z"/>
	</g>
</g>
<g>
</g>
<g>
</g>
<g>
</g>
<g>
</g>
<g>
</g>
<g>
</g>
<g>
</g>
<g>
</g>
<g>
</g>
<g>
</g>
<g>
</g>
<g>
</g>
<g>
</g>
<g>
</g>
<g>
</g>
</svg>
