<?xml version="1.0" encoding="iso-8859-1"?>
<!-- Generator: Adobe Illustrator 19.0.0, SVG Export Plug-In . SVG Version: 6.00 Build 0)  -->
<svg version="1.1" id="Capa_1" xmlns="http://www.w3.org/2000/svg" xmlns:xlink="http://www.w3.org/1999/xlink" x="0px" y="0px"
	 viewBox="0 0 512 512" style="enable-background:new 0 0 512 512;" xml:space="preserve">
<g>
	<g>
		<path d="M243.322,313.421l-16.032-8.016c-3.707-1.853-8.212-0.351-10.063,3.354c-1.853,3.705-0.351,8.21,3.354,10.062
			l16.032,8.016c1.077,0.539,2.222,0.793,3.349,0.793c2.751,0,5.4-1.52,6.714-4.147
			C248.529,319.778,247.027,315.273,243.322,313.421z"/>
	</g>
</g>
<g>
	<g>
		<path d="M294.773,308.759c-1.851-3.705-6.355-5.206-10.063-3.354l-16.032,8.016c-3.704,1.852-5.206,6.357-3.354,10.062
			c1.314,2.628,3.963,4.147,6.714,4.147c1.127,0,2.271-0.255,3.349-0.793l16.032-8.016
			C295.123,316.969,296.625,312.464,294.773,308.759z"/>
	</g>
</g>
<g>
	<g>
		<path d="M512,223.936c0-39.496-32.133-71.629-71.629-71.629c-6.606,0-13.103,0.905-19.386,2.669
			c-4.928-13.323-11.495-26.067-19.626-37.981c-18.503-27.106-43.918-48.334-73.729-61.639V31.548c0-2.489-1.234-4.815-3.295-6.21
			c-2.061-1.394-4.679-1.678-6.99-0.753l-32.103,12.841l-5.933-23.729c-0.507-2.026-1.836-3.75-3.667-4.755
			c-1.833-1.005-4.001-1.202-5.981-0.541c-18.575,6.192-36.821,18.472-54.261,36.515c-37.524,8.89-71.54,30.254-95.986,60.339
			c-12.161,14.965-21.688,31.815-28.314,49.74c-6.308-1.78-12.832-2.688-19.47-2.688C32.133,152.307,0,184.44,0,223.936
			c0,32.796,22.447,61.148,53.464,69.271c-3.561,12.662-5.367,25.674-5.367,38.946c0,46.183,21.82,89.51,61.441,121.999
			c39.188,32.135,91.203,49.832,146.462,49.832c55.259,0,107.273-17.697,146.462-49.832c39.621-32.489,61.441-75.815,61.441-121.999
			c0-13.271-1.806-26.28-5.366-38.94C489.554,285.089,512,256.732,512,223.936z M15,223.936c0-31.225,25.403-56.629,56.629-56.629
			c5.068,0,10.05,0.665,14.87,1.973c-4.167,15.111-6.338,30.803-6.338,46.639c0,14.313-4.07,28.903-11.772,42.192
			c-3.949,6.813-7.31,13.775-10.112,20.859C33.234,272.913,15,250.225,15,223.936z M256,488.984
			c-106.367,0-192.903-70.354-192.903-156.831c0-23.221,6.147-45.602,18.271-66.521c9.024-15.571,13.794-32.762,13.794-49.713
			c0-36.778,12.747-72.721,35.893-101.205c22.812-28.073,54.72-47.845,89.846-55.672c1.461-0.325,2.791-1.08,3.818-2.167
			c13.755-14.545,27.882-25.047,42.097-31.307l5.958,23.833c0.525,2.101,1.934,3.873,3.862,4.858
			c1.929,0.987,4.189,1.089,6.199,0.286l29.795-11.918v17.672c0,3.037,1.832,5.775,4.64,6.933
			c60.486,24.955,99.57,83.318,99.57,148.688c0,16.952,4.77,34.142,13.794,49.713c12.123,20.919,18.271,43.3,18.271,66.521
			C448.903,418.63,362.367,488.984,256,488.984z M453.723,278.971c-2.802-7.084-6.163-14.046-10.112-20.859
			c-7.702-13.289-11.772-27.878-11.772-42.192c0-15.925-2.127-31.588-6.267-46.659c4.799-1.296,9.757-1.954,14.799-1.954
			c31.226,0,56.629,25.404,56.629,56.629C497,250.225,478.766,272.913,453.723,278.971z"/>
	</g>
</g>
<g>
	<g>
		<path d="M207.903,232.468c-4.143,0-7.5,3.358-7.5,7.5v8.016c0,9.125-7.424,16.548-16.549,16.548s-16.548-7.423-16.548-16.548
			v-8.016c0.001-9.125,7.423-16.548,16.548-16.548c4.143,0,7.5-3.358,7.5-7.5c0-4.142-3.357-7.5-7.5-7.5
			c-17.396,0-31.548,14.152-31.548,31.548v8.016c0,17.396,14.152,31.548,31.548,31.548s31.549-14.152,31.549-31.548v-8.016
			C215.403,235.826,212.046,232.468,207.903,232.468z"/>
	</g>
</g>
<g>
	<g>
		<path d="M352.193,232.468c-4.143,0-7.5,3.358-7.5,7.5v8.016c0,9.125-7.423,16.548-16.548,16.548s-16.549-7.423-16.549-16.548
			v-8.016c0-9.125,7.424-16.548,16.549-16.548c4.143,0,7.5-3.358,7.5-7.5c0-4.142-3.357-7.5-7.5-7.5
			c-17.396,0-31.549,14.152-31.549,31.548v8.016c0,17.396,14.152,31.548,31.549,31.548c17.396,0,31.548-14.152,31.548-31.548v-8.016
			C359.693,235.826,356.336,232.468,352.193,232.468z"/>
	</g>
</g>
<g>
	<g>
		<path d="M336.161,352.71H175.839c-4.143,0-7.5,3.358-7.5,7.5c0,43.916,39.324,79.645,87.661,79.645
			c48.337,0,87.661-35.729,87.661-79.645C343.661,356.068,340.304,352.71,336.161,352.71z M263.5,424.503v-8.179
			c0-4.143-3.357-7.501-7.5-7.501s-7.5,3.358-7.5,7.5v8.179c-10.713-0.982-20.738-4.047-29.565-8.725
			c6.48-14.503,20.944-24.018,37.065-24.018c16.192,0,30.594,9.496,37.067,24.018C284.239,420.456,274.214,423.521,263.5,424.503z
			 M305.663,407.335c-9.326-18.576-28.366-30.576-49.663-30.576c-21.206,0-40.314,12.028-49.656,30.582
			c-12.212-10.19-20.489-24.071-22.519-39.631h144.35C326.146,383.266,317.872,397.145,305.663,407.335z"/>
	</g>
</g>
<g>
	<g>
		<path d="M381.253,298.998c14.952-17.866,21.172-40.546,17.511-63.86c-2.126-13.54-7.894-26.424-16.681-37.258
			c-2.608-3.216-7.331-3.711-10.55-1.101c-3.217,2.609-3.71,7.333-1.101,10.549c7.124,8.784,11.797,19.205,13.513,30.137
			c2.979,18.975-2.063,37.409-14.196,51.906c-11.758,14.047-14.447,33.365-7.017,50.414c3.987,9.149,6.01,18.718,6.01,28.441
			c0,48.906-50.576,88.694-112.742,88.694s-112.742-39.788-112.742-88.694c0-9.723,2.022-19.292,6.01-28.441
			c7.431-17.048,4.742-36.366-7.017-50.414c-12.135-14.498-17.177-32.934-14.196-51.91c4.267-27.158,26.222-49.079,53.392-53.309
			c19.713-3.067,39.351,2.775,53.883,16.03c11.593,10.574,29.753,10.572,41.342,0c14.534-13.256,34.175-19.098,53.888-16.029
			c6.318,0.984,12.459,2.943,18.251,5.823c3.707,1.844,8.211,0.332,10.055-3.377s0.332-8.21-3.377-10.055
			c-7.171-3.565-14.781-5.991-22.62-7.212c-24.232-3.773-48.395,3.432-66.305,19.768c-5.922,5.402-15.203,5.402-21.125,0
			c-17.907-16.334-42.072-23.543-66.298-19.769c-33.537,5.22-60.637,32.279-65.903,65.802c-3.662,23.316,2.557,45.998,17.513,63.865
			c8.085,9.66,9.912,22.991,4.769,34.793c-4.817,11.051-7.26,22.637-7.26,34.434c0,57.177,57.305,103.694,127.742,103.694
			s127.742-46.517,127.742-103.694c0-11.797-2.442-23.383-7.259-34.434C371.341,321.988,373.169,308.656,381.253,298.998z"/>
	</g>
</g>
<g>
</g>
<g>
</g>
<g>
</g>
<g>
</g>
<g>
</g>
<g>
</g>
<g>
</g>
<g>
</g>
<g>
</g>
<g>
</g>
<g>
</g>
<g>
</g>
<g>
</g>
<g>
</g>
<g>
</g>
</svg>
